<?xml version="1.0" encoding="utf-8"?>
<!-- Generator: Adobe Illustrator 16.0.0, SVG Export Plug-In . SVG Version: 6.00 Build 0)  -->
<!DOCTYPE svg PUBLIC "-//W3C//DTD SVG 1.1//EN" "http://www.w3.org/Graphics/SVG/1.1/DTD/svg11.dtd">
<svg version="1.1" id="Layer_1" xmlns="http://www.w3.org/2000/svg" xmlns:xlink="http://www.w3.org/1999/xlink" x="0px" y="0px"
	 width="479px" height="497px" viewBox="0 0 479 497" enable-background="new 0 0 479 497" xml:space="preserve">
<g>
	<path fill="#434140" d="M256.319,45.29c5.521-0.17,11.051-0.15,16.581-0.03l-0.681-0.01C266.91,45.19,261.62,45.19,256.319,45.29z"
		/>
</g>
<g>
	<path fill="#474543" d="M239.31,46.23c2.83-0.33,5.67-0.49,8.52-0.56C244.99,45.86,242.13,46.02,239.31,46.23z"/>
</g>
<g>
	<g>
		<path fill="#C59C6D" d="M247.83,45.67c2.8-0.16,5.66-0.3,8.489-0.38c5.301-0.1,10.591-0.1,15.9-0.04
			c8.56,1.59,15.261,7.82,23.06,11.14c4.61,0.45,9.25,0.72,13.881,1c1.56,0.13,3.13,0.18,4.71,0.18c2.399-0.23,4.33,1.47,5.399,3.46
			c0.601,1.18,1.541,2.2,2.87,2.56c7.37,3.1,14.38,7.5,19.91,13.32c5.75,8,9.03,17.46,14.17,25.84c2.3,4.31,5.55,8.07,7.57,12.53
			c0.34,2.5,0.54,5.02,0.8,7.53c0.61,13.46,12.84,22.98,13.3,36.46c0,4.63-0.01,9.26-0.18,13.9c-0.13,1.56-0.25,3.12-0.3,4.69
			c-1.591,12.19-6.58,23.65-8.33,35.8c-3.391,19.95,7.39,40.029,1.14,59.68c-2.3,7.62-3.39,15.54-4.39,23.43
			c-0.48,6.761-3.04,13.05-5.63,19.211c-5.3,13.92-10.84,28.6-22.49,38.51c-19.09,16.22-37.46,33.949-60.01,45.38
			c-9.54,4.149-19.351,8.09-29.73,9.48c-1.38,0.06-2.75,0.31-4.07,0.719c-0.789,0.161-2.359,0.461-3.149,0.62
			c-5.19,0.051-10.38,0.221-15.56-0.079c-0.48-0.13-1.45-0.391-1.94-0.521c-1.08-0.479-2.25-0.72-3.43-0.63
			c-1.58-0.029-3.14-0.2-4.69-0.5c-1.34-0.34-2.69-0.57-4.06-0.69c-14.66-5.649-24.29-19.81-39.36-24.95
			c-2.9-2.159-5.72-4.419-8.38-6.859c-8.83-10.149-13.91-22.899-22.61-33.141c-6.6-7.319-10.71-16.35-13.27-25.759
			c-0.78-2.95-1.53-5.921-2.31-8.86c-1.08-4.97-3.09-9.67-4.3-14.59c-0.24-2.641-0.41-5.23-0.55-7.851
			c-0.11-19.99-4.86-39.82-2.93-59.84c0.22-6.66,2.16-13.12,2.66-19.74c-0.09-3.76-0.49-7.51-1.08-11.22
			c-0.63-3.66-2.09-7.12-2.54-10.8c-0.19-4.46-0.34-8.91-0.34-13.36c0.09-1.64,0.28-4.9,0.38-6.54c0.22-2.82,0.47-5.62,0.75-8.43
			c0.31-3.06,0.89-6.11,1.85-9.03c0.46-1.09,0.67-2.26,0.62-3.44c0.46-9.16,7.42-15.9,11.76-23.4c5.65-8.78,8.99-18.77,14.38-27.69
			c5.73-6.97,12.16-13.32,18.9-19.3c9.02-6.87,19.64-11.12,29.81-15.94c8.79-4.08,18.03-7.32,27.65-8.72
			c1.16-0.19,3.48-0.55,4.64-0.73c4.15-0.66,8.31-1.48,12.51-1.85C242.13,46.02,244.99,45.86,247.83,45.67z M289.49,92.54
			c-15.98,5.69-29.18,18.92-46.69,20.28c-6.8-0.26-13.61-0.23-20.4-0.28c-6.07-2.54-11.6-6.5-18.25-7.52
			c-8.53-1.66-17.05-4.11-24.47-8.76c-2.95-1.75-5.55-4.33-9.24-4.41c-5.65,0.35-13.07-0.62-16.55,4.98
			c-10.65,14.72-14.2,33.07-17.68,50.54c-2.36,9.56-6.53,18.6-8.51,28.26c-0.34,9.61,1.7,19.13,3.07,28.6
			c-3.32,0.45-4.75,4.07-4.23,7.06c1.97,1.72,4.54,2.43,6.95,3.27c1.1,8.1,1.09,16.29,2.06,24.4c1.35,6.11,3.69,11.94,5.03,18.05
			c1.02,7.76,8.25,12.351,11.53,19.051c1.67,4.489,0.42,10.12,4.09,13.699c2.59,2.801,4.86,5.88,6.81,9.171
			c3.11,5.18,3.81,11.649,8.24,16.029c10.3-7.899,19.96-16.779,31.21-23.35c4.97-0.88,11.27-0.971,15.3,2.62
			c5.69,6.81,4.57,16.939,10.2,23.77c4.34,6.17,12.91,7.48,19.721,5.67c8.699-6.4,11.489-17.38,15.159-26.88
			c4.1-3.101,9.79-2.88,14.689-3.07c7.021,1.9,13.341,5.85,20.051,8.61c9.739,3.72,16.26,12.53,25.56,16.989
			c0.53-5.22,0.541-10.649,2.91-15.47c2.78-5.75,6.21-11.58,5.27-18.289c3.931,2.12,8.421,3.909,12.881,1.729
			c5.23-6.25,9.189-13.859,11.01-21.84c0.4-15.6,0.319-31.27-1.04-46.83l-0.989,0.36c2.72-0.93,5.539-1.71,8.279-2.64
			c-0.649-3.73-2.31-7.68-6.399-8.35l0.699,0.25c2.21-11.77,4.33-23.55,4.9-35.54c0.4-5.83,0.619-11.67,0.779-17.5
			c1.461-8.7-4.91-15.76-6.6-23.88c-1.609-9.35-10.21-14.55-15.279-21.89c-5.57-4.89-2.9-14.48-9.82-18.18
			C316.76,84.98,302.55,89.14,289.49,92.54z"/>
	</g>
</g>
<g>
	<path fill="#AD9E8D" d="M295.279,56.39c4.531,0.3,9.091,0.41,13.61,0.96l0.271,0.04C304.529,57.11,299.89,56.84,295.279,56.39z"/>
</g>
<g>
	<path fill="#F2E2DC" d="M289.49,92.54c13.06-3.4,27.27-7.56,40.25-1.29c6.92,3.7,4.25,13.29,9.82,18.18
		c5.069,7.34,13.67,12.54,15.279,21.89c1.689,8.12,8.061,15.18,6.6,23.88c-0.279,5.83-0.5,11.66-0.779,17.5
		c-0.57,11.99-2.69,23.77-4.9,35.54l-0.699-0.25c-2.57-1-5.36-1.71-7.511-3.51c-1.97-2.65-3.021-5.86-4.47-8.8
		c0.28-4.34,1.55-9.34-1.96-12.78c-5.72-8.15-15.36-12.9-25.38-12.14c-3.84,0.05-7.671,0.17-11.48,0.37
		c-14.04,0.86-27.94,4.56-40.1,11.71h-0.7c-5.391-0.1-10.771-0.11-16.149-0.35c-1.801-0.1-3.591-0.27-5.371-0.46
		c-1.17-0.39-2.319-0.82-3.479-1.24c-12.36-4.32-24.85-8.31-37.02-13.15c-9.16-4.13-19.59-3.39-29.33-2.56
		c-11.38,2.07-24.84,6.87-29.19,18.75c8.55,0.29,16.86-1.96,25.33-2.53c3.18,0.01,6.39,0.12,9.57,0.25
		c0.52,0.03,1.57,0.08,2.09,0.11c-1.45,0.38-4.35,1.15-5.8,1.53c-1.49,0.21-2.98,0.42-4.46,0.63c-1.71-0.85-3.7-0.86-5.37,0.08
		c-4.19,1.22-8.71,2.26-11.96,5.38c-3.38,3.58-5.29,8.48-9.24,11.54c-3.94,1.64-8.21,2.27-12.31,3.41
		c-1.37-9.47-3.41-18.99-3.07-28.6c1.98-9.66,6.15-18.7,8.51-28.26c3.48-17.47,7.03-35.82,17.68-50.54
		c3.48-5.6,10.9-4.63,16.55-4.98c3.69,0.08,6.29,2.66,9.24,4.41c7.42,4.65,15.94,7.1,24.47,8.76c6.65,1.02,12.18,4.98,18.25,7.52
		c6.78,0.59,13.6,0.6,20.4,0.28C260.311,111.46,273.51,98.23,289.49,92.54z"/>
	<path fill="#F2E2DC" d="M133.49,214.56c3.36,1.27,6.99,2.28,9.63,4.85c-0.91,1.43-1.05,3.36-0.03,4.78
		c2.21,3.8,4.38,7.83,7.65,10.81c4.1,2.06,8.32,4.13,12.83,5.14c11.32,1.53,22.8,1.62,34.2,1.18c5.5-0.36,11.68-0.72,16.11-4.42
		c7.48-6.44,15.37-12.38,22.65-19.04c4.38-0.23,8.77-0.54,13.17-0.62c2.5,0.1,4.949,0.73,7.26,1.68c7.08,1.78,8.21,9.83,12.44,14.73
		c7.02,12.8,23.51,11.32,35.879,12.27c4.48,0.01,8.99,0.21,13.48-0.15c6.221-0.77,12.26-3.13,17.52-6.53
		c7.36-5.2,7.16-18.03,16.901-20.26l0.989-0.36c1.359,15.56,1.44,31.23,1.04,46.83c-1.82,7.98-5.779,15.59-11.01,21.84
		c-4.46,2.18-8.95,0.391-12.881-1.729c0.94,6.709-2.489,12.539-5.27,18.289c-2.369,4.82-2.38,10.25-2.91,15.47
		c-9.3-4.459-15.82-13.27-25.56-16.989c-6.71-2.761-13.03-6.71-20.051-8.61c-4.899,0.19-10.59-0.03-14.689,3.07
		c-3.67,9.5-6.46,20.479-15.159,26.88c-6.811,1.811-15.381,0.5-19.721-5.67c-5.63-6.83-4.51-16.96-10.2-23.77
		c-4.03-3.591-10.33-3.5-15.3-2.62c-11.25,6.57-20.91,15.45-31.21,23.35c-4.43-4.38-5.13-10.85-8.24-16.029
		c-1.95-3.291-4.22-6.37-6.81-9.171c-3.67-3.579-2.42-9.21-4.09-13.699c-3.28-6.7-10.51-11.291-11.53-19.051
		c-1.34-6.109-3.68-11.94-5.03-18.05C134.58,230.85,134.59,222.66,133.49,214.56z"/>
</g>
<g>
	<path fill="#DCBFA4" d="M222.4,112.54c6.79,0.05,13.6,0.02,20.4,0.28C236,113.14,229.18,113.13,222.4,112.54z"/>
</g>
<g>
	<path fill="#3B3938" d="M363.79,115.28c0.31,2.5,0.61,5.01,0.8,7.53C364.33,120.3,364.13,117.78,363.79,115.28z"/>
</g>
<g>
	<path fill="#DDC2A7" d="M360.66,172.7c0.279-5.84,0.5-11.67,0.779-17.5C361.279,161.03,361.061,166.87,360.66,172.7z"/>
</g>
<g>
	<path fill="#615E5A" d="M116.44,164.76c0.17-2.81,0.39-5.63,0.75-8.43C116.91,159.14,116.66,161.94,116.44,164.76z"/>
</g>
<g>
	<path fill="#7F7871" d="M377.89,159.27c0.03,4.53,0.37,9.11-0.149,13.63l-0.03,0.27C377.88,168.53,377.89,163.9,377.89,159.27z"/>
</g>
<g>
	<path fill="#A77D54" d="M172.11,165.08c9.74-0.83,20.17-1.57,29.33,2.56c12.17,4.84,24.66,8.83,37.02,13.15
		c-1.75,0.42-3.49,0.82-5.23,1.22c-13.45,1.35-26.98,1.09-40.47,0.45c-4.29-0.25-8.56-0.65-12.85-0.8
		c-0.52-0.03-1.57-0.08-2.09-0.11c-3.2-0.16-6.37-0.38-9.57-0.25c-8.47,0.57-16.78,2.82-25.33,2.53
		C147.27,171.95,160.73,167.15,172.11,165.08z"/>
</g>
<g>
	<path fill="#C6AA8F" d="M304.26,171.13c3.81-0.2,7.641-0.32,11.48-0.37C311.9,170.84,308.069,170.96,304.26,171.13z"/>
</g>
<g>
	<path fill="#A67D54" d="M315.74,170.76c10.02-0.76,19.66,3.99,25.38,12.14c3.51,3.44,2.24,8.44,1.96,12.78
		c-14.051-6.33-29.43-7.94-44.49-10.19c-11.359-2.17-22.96-1.65-34.43-2.65c12.159-7.15,26.06-10.85,40.1-11.71
		C308.069,170.96,311.9,170.84,315.74,170.76z"/>
</g>
<g>
	<path fill="#323131" d="M116.4,184.66c-0.2-4.46-0.42-8.91-0.34-13.36C116.06,175.75,116.21,180.2,116.4,184.66z"/>
</g>
<g>
	<path fill="#BCA99C" d="M238.46,180.79c1.16,0.42,2.31,0.85,3.479,1.24c-2.91-0.08-5.81-0.08-8.709-0.02
		C234.97,181.61,236.71,181.21,238.46,180.79z"/>
</g>
<g>
	<path fill="#CDB199" d="M168.25,181.3c3.2-0.13,6.37,0.09,9.57,0.25C174.64,181.42,171.43,181.31,168.25,181.3z"/>
</g>
<g>
	<path fill="#F2E2DC" d="M179.91,181.66c4.29,0.15,8.56,0.55,12.85,0.8c-0.49,0.01-1.47,0.05-1.96,0.06
		c-3.53,0.13-7.02,0.32-10.54,0.48c-2.05,0.06-4.1,0.09-6.15,0.19C175.56,182.81,178.46,182.04,179.91,181.66z"/>
</g>
<g>
	<path fill="#676260" d="M180.26,183c3.52-0.16,7.01-0.35,10.54-0.48C187.28,182.7,183.78,182.92,180.26,183z"/>
</g>
<g>
	<g>
		<path fill="#3A3230" d="M190.8,182.52c0.49-0.01,1.47-0.05,1.96-0.06c13.49,0.64,27.02,0.9,40.47-0.45
			c2.9-0.06,5.8-0.06,8.709,0.02c1.78,0.19,3.57,0.36,5.371,0.46c5.37,0.24,10.759,0.34,16.149,0.35h0.7
			c11.47,1,23.07,0.48,34.43,2.65c15.061,2.25,30.439,3.86,44.49,10.19c1.449,2.94,2.5,6.15,4.47,8.8c2.15,1.8,4.94,2.51,7.511,3.51
			c4.09,0.67,5.75,4.62,6.399,8.35c-2.74,0.93-5.56,1.71-8.279,2.64c-9.741,2.23-9.541,15.06-16.901,20.26
			c-5.26,3.4-11.299,5.76-17.52,6.53c-4.51,0.11-8.99,0.18-13.48,0.15c-12.369-0.95-28.859,0.53-35.879-12.27
			c-4.23-4.9-5.36-12.95-12.44-14.73c-2.311-0.95-4.76-1.58-7.26-1.68c-4.39,0.08-8.86-0.35-13.17,0.62
			c-7.28,6.66-15.17,12.6-22.65,19.04c-4.43,3.7-10.61,4.06-16.11,4.42c-11.4-0.45-22.82-0.36-34.2-1.18
			c-4.51-1.01-8.73-3.08-12.83-5.14c-3.27-2.98-5.44-7.01-7.65-10.81c0.78-1.39,1.51-3.6,0.03-4.78c-2.64-2.57-6.27-3.58-9.63-4.85
			c-2.41-0.84-4.98-1.55-6.95-3.27c-0.52-2.99,0.91-6.61,4.23-7.06c4.1-1.14,8.37-1.77,12.31-3.41c3.95-3.06,5.86-7.96,9.24-11.54
			c3.25-3.12,7.77-4.16,11.96-5.38c1.68,0.97,3.72,0.97,5.37-0.08c1.48-0.21,2.97-0.42,4.46-0.63c2.05-0.1,4.1-0.13,6.15-0.19
			C183.78,182.92,187.28,182.7,190.8,182.52z M165.31,189.35c-4.07,1.11-10.18,1.27-11.83,6.03c-1.47,2.89-2.45,6.01-2.99,9.2
			c-1.16,5.12-1.41,10.43-1.1,15.66c0.77,3.3,2.58,6.22,5.1,8.47c3.42,4.43,9.88,3.22,14.67,5.1l-0.62-0.1
			c2.8,0.4,8.41,1.22,11.21,1.63c0.62,0.02,1.85,0.06,2.47,0.09c7.89-0.46,16.27,1.13,23.92-1.31c6.22-3.49,10.76-9.94,12.6-16.76
			c0.98-5.52,1.63-11.85-0.88-16.98c-2.35-9.82-14.28-10.85-22.61-11.76c-4.47-0.59-9-0.02-13.48-0.03
			C176.28,188.75,170.79,188.99,165.31,189.35z M224.05,190.59c1.2,2.43,2.42,4.86,3.82,7.19c-1.51,0.64-0.92,3.62,0.81,3.32
			c-0.09,2.06-0.07,4.14-0.04,6.21c3.54-0.47,7.04-1.01,10.59-1.5c0.63,2,4.76,1.86,4.701-0.43c6.759,0.34,13.529,0.9,20.22,2.04
			c2.46-5.33,7.189-10.13,6.649-16.34h0.39c-4.329-0.08-8.66-0.13-12.979-0.14c-4.17,0.04-8.34,0.25-12.51,0.16
			c-3.15-0.16-6.33-0.23-9.48-0.28C232.16,190.7,228.1,190.63,224.05,190.59z M275.96,198.95c-3.42,4.2-4.34,9.95-4.681,15.23
			c-1.979,0.98-2.279,5.39,0.181,5.65c0,4.89,2.319,9.65,5.69,13.09c6.229,5.28,14.89,5.37,22.619,5.38
			c1.811-0.12,5.44-0.34,7.25-0.45c1.101,2.05,4.9,2.14,5.83-0.09c4.141,0.02,8.271-0.29,12.41-0.68
			c6.41-3.31,10.84-9.27,14.79-15.11c3.46-5.18,1.75-11.87,0.4-17.4c-1.601-1.46-3.3-2.8-5.11-3.98c-1.14-0.6-2.37-1-3.609-1.27
			c-7.131-3.01-14.771-5.53-22.62-4.38c-1.78-0.34-3.581-0.57-5.38-0.74c-4.701-1.49-9.681-1.65-14.57-1.35
			C284.189,192.95,279.83,196.14,275.96,198.95z"/>
	</g>
</g>
<g>
	<path fill="#888280" d="M247.311,182.49c5.379,0.24,10.759,0.25,16.149,0.35C258.069,182.83,252.681,182.73,247.311,182.49z"/>
</g>
<g>
	<path fill="#3A3230" d="M162.209,184.806c3.702-2.025,8.167-2.11,12.047-0.451C170.604,186.605,166.026,186.714,162.209,184.806z"
		/>
</g>
<g>
	<path fill="#864A3D" d="M165.31,189.35c5.48-0.36,10.97-0.6,16.46-0.76C176.28,188.82,170.79,189.02,165.31,189.35z"/>
</g>
<g>
	<path fill="#F16C4F" d="M181.77,188.59c4.48,0.01,9.01-0.56,13.48,0.03c8.19,2.33,17.08,4.8,22.61,11.76
		c2.51,5.13,1.86,11.46,0.88,16.98c-5.14,7.42-10.81,17.69-21.27,17.03c-5.08,0.46-10.16,0.8-15.25,1.04
		c-0.62-0.03-1.85-0.07-2.47-0.09c-3.54-0.45-7.08-0.96-10.59-1.53c-4.79-1.88-11.25-0.67-14.67-5.1c-1.8-2.76-3.53-5.57-5.1-8.47
		c-0.31-5.23-0.06-10.54,1.1-15.66c0.93-3.09,1.93-6.15,2.99-9.2c1.65-4.76,7.76-4.92,11.83-6.03
		C170.79,189.02,176.28,188.82,181.77,188.59z"/>
</g>
<g>
	<path fill="#D9BCB5" d="M195.25,188.62c8.33,0.91,20.26,1.94,22.61,11.76C212.33,193.42,203.44,190.95,195.25,188.62z"/>
</g>
<g>
	<path fill="#F0E1DB" d="M224.05,190.59c4.05,0.04,8.11,0.11,12.17,0.23c3.15,0.1,6.33,0.25,9.48,0.28
		c4.17,0.09,8.34-0.12,12.51-0.16c4.18,0.03,8.38,0.11,12.59,0.14c0.54,6.21-4.189,11.01-6.649,16.34
		c-6.69-1.14-13.461-1.7-20.22-2.04c-1.181,0.11-3.531,0.32-4.701,0.43c-3.55,0.49-7.05,1.03-10.59,1.5
		c-0.03-2.07-0.05-4.15,0.04-6.21c0.18-1.18-0.08-2.38-0.81-3.32C226.47,195.45,225.25,193.02,224.05,190.59z"/>
</g>
<g>
	<path fill="#AB9E9A" d="M236.22,190.82c3.15,0.05,6.33,0.12,9.48,0.28C242.55,191.07,239.37,190.92,236.22,190.82z"/>
</g>
<g>
	<path fill="#8B817D" d="M258.21,190.94c4.319,0.01,8.65,0.06,12.979,0.14h-0.39C266.59,191.05,262.39,190.97,258.21,190.94z"/>
</g>
<g>
	<path fill="#F06C4F" d="M275.96,198.95c3.87-2.81,8.229-6,13.2-6.1c4.859,0.43,9.71,0.92,14.57,1.35c1.799,0.17,3.6,0.4,5.38,0.74
		c7.489,1.7,15.05,3.07,22.62,4.38c1.239,0.27,2.47,0.67,3.609,1.27c1.76,1.25,3.46,2.58,5.11,3.98c1.35,5.53,3.06,12.22-0.4,17.4
		c-3.95,5.84-8.38,11.8-14.79,15.11c-4.14,0.39-8.27,0.7-12.41,0.68c-2.02-0.1-3.88-0.15-5.83,0.09c-1.81,0.11-5.439,0.33-7.25,0.45
		c-7.7-1.01-15.339-2.6-22.619-5.38c-3.371-3.44-5.69-8.2-5.69-13.09c-0.08-1.89-0.141-3.78-0.181-5.65
		C271.62,208.9,272.54,203.15,275.96,198.95z"/>
</g>
<g>
	<path fill="#EED5D0" d="M289.16,192.85c4.89-0.3,9.869-0.14,14.57,1.35C298.87,193.77,294.02,193.28,289.16,192.85z"/>
</g>
<g>
	<path fill="#E5C7AA" d="M106.88,194.03l1.02-0.35c6.45,1.48,11.45,6.15,12.12,13c-0.5,6.62-2.44,13.08-2.66,19.74
		c-1.93,20.02,2.82,39.85,2.93,59.84l-0.9-0.35l-0.74-0.3c-7.17-2.3-11.55-8.921-15.4-14.99c-5.29-7.83-7.11-17.29-9.84-26.19
		l-0.21-0.76c-0.83-3.3-1.71-6.59-2.45-9.92l-0.17-0.87c-0.19-1.17-0.57-3.53-0.76-4.7l-0.13-1.04c-0.3-4.46-0.56-8.9-0.68-13.35
		l0.16-0.92c1.28-4.29,1.72-9.31,5.28-12.41C98.04,197.42,102.67,196.01,106.88,194.03z"/>
</g>
<g>
	<path fill="#E9D6D2" d="M309.11,194.94c7.85-1.15,15.489,1.37,22.62,4.38C324.16,198.01,316.6,196.64,309.11,194.94z"/>
</g>
<g>
	<path fill="#E8BDB4" d="M150.49,204.58c0.54-3.19,1.52-6.31,2.99-9.2C152.42,198.43,151.42,201.49,150.49,204.58z"/>
</g>
<g>
	<path fill="#3A3230" d="M227.87,197.78c0.73,0.94,0.99,2.14,0.81,3.32C226.95,201.4,226.36,198.42,227.87,197.78z"/>
</g>
<g>
	<path fill="#BCA9A5" d="M335.34,200.59c1.811,1.18,3.51,2.52,5.11,3.98C338.8,203.17,337.1,201.84,335.34,200.59z"/>
</g>
<g>
	<path fill="#3A3230" d="M239.23,205.81c1.17-0.11,3.52-0.32,4.701-0.43C243.99,207.67,239.86,207.81,239.23,205.81z"/>
</g>
<g>
	<path fill="#F1C191" d="M369.08,213.66c4.699-0.95,9.439-2.09,14.27-1.85c6.19,0.93,11.271,5.05,16.131,8.69
		c2.18,1.03,3.77,3.19,3.909,5.58c0.16,1.19,0.48,3.58,0.64,4.77c0.101,1.11,0.29,3.32,0.391,4.43c0.02,1.34,0.05,4.02,0.07,5.36
		c0.52,7.04-1.82,13.74-4.891,19.929c-5.09,10.531-9.08,22.021-17.689,30.331c-3.971,4.58-10.5,4.83-16.08,5.869
		c1-7.89,2.09-15.81,4.39-23.43C376.47,253.689,365.689,233.61,369.08,213.66z"/>
</g>
<g>
	<path fill="#434342" d="M88.99,213.15l0.02,0.64c0.12,4.45,0.38,8.89,0.68,13.35C89.38,222.47,89.02,217.82,88.99,213.15z"/>
</g>
<g>
	<path fill="#3A3230" d="M271.279,214.18c0.04,1.87,0.101,3.76,0.181,5.65C269,219.57,269.3,215.16,271.279,214.18z"/>
</g>
<g>
	<path fill="#A09A98" d="M236.53,217.86c4.31-0.97,8.781-0.54,13.17-0.62C245.3,217.32,240.91,217.63,236.53,217.86z"/>
</g>
<g>
	<path fill="#DCC0BA" d="M197.47,234.39c10.46,0.66,16.13-9.61,21.27-17.03c-1.84,6.82-6.38,13.27-12.6,16.76
		c-7.65,2.44-16.03,0.85-23.92,1.31C187.31,235.19,192.39,234.85,197.47,234.39z"/>
</g>
<g>
	<path fill="#3A3230" d="M143.12,219.41c1.48,1.18,0.75,3.39-0.03,4.78C142.07,222.77,142.21,220.84,143.12,219.41z"/>
</g>
<g>
	<path fill="#C3A49D" d="M149.39,220.24c1.57,2.9,3.3,5.71,5.1,8.47C151.97,226.46,150.16,223.54,149.39,220.24z"/>
</g>
<g>
	<path fill="#F2E2DC" d="M277.15,232.92c7.28,2.78,14.919,4.37,22.619,5.38C292.04,238.29,283.38,238.2,277.15,232.92z"/>
</g>
<g>
	<path fill="#7A5851" d="M169.16,233.81c3.51,0.57,7.05,1.08,10.59,1.53c-2.8-0.41-8.41-1.23-11.21-1.63L169.16,233.81z"/>
</g>
<g>
	<path fill="#3A3230" d="M307.02,237.85c1.95-0.24,3.811-0.19,5.83-0.09C311.92,239.99,308.12,239.9,307.02,237.85z"/>
</g>
<g>
	<path fill="#3A3230" d="M163.57,240.14c11.38,0.82,22.8,0.73,34.2,1.18C186.37,241.76,174.89,241.67,163.57,240.14z"/>
</g>
<g>
	<path fill="#ADA7A6" d="M305.279,245.92c4.49,0.03,8.971-0.04,13.48-0.15C314.27,246.13,309.76,245.93,305.279,245.92z"/>
</g>
<g>
	<path fill="#343332" d="M225.19,410.61c5.18,0.3,10.37,0.13,15.56,0.079C235.56,410.8,230.37,410.78,225.19,410.61z"/>
</g>
</svg>
